<svg width="27" height="18" viewBox="0 0 27 18" fill="none" xmlns="http://www.w3.org/2000/svg">
<path d="M1.37592 13.4932L0.0177917 17.9264H1.08649L1.33163 17.1004H2.65644L2.89495 17.9264H4.05709L2.69907 13.4932H1.37592ZM1.60005 16.2086L2.0035 14.8298L2.4024 16.2086H1.60005Z" fill="#12E1B9"/>
<path d="M6.61057 15.9039C6.59453 15.8867 6.57818 15.8704 6.56152 15.8552C6.59494 15.8426 6.62754 15.8292 6.65941 15.8145C6.78875 15.7551 6.90206 15.6755 6.99622 15.5785C7.09142 15.4806 7.16623 15.3627 7.21849 15.2279C7.27023 15.0947 7.29651 14.9416 7.29651 14.7733C7.29651 14.5412 7.2546 14.3404 7.17224 14.1764C7.08894 14.0106 6.96839 13.874 6.8141 13.7704C6.66437 13.67 6.48226 13.5975 6.27272 13.555C6.07135 13.5141 5.84453 13.4932 5.59878 13.4932H4.2124V17.9264H5.27562V16.1942H5.30718C5.42349 16.1942 5.52045 16.2198 5.60354 16.2726C5.68601 16.3248 5.74923 16.4019 5.79714 16.5087L6.43973 17.9264H7.67679L6.89606 16.345C6.80148 16.1529 6.70804 16.0088 6.61057 15.9039ZM6.14813 15.0534C6.1174 15.112 6.07477 15.16 6.01775 15.2001C5.95763 15.2423 5.88303 15.2747 5.79569 15.2965C5.70349 15.3195 5.59826 15.3311 5.48278 15.3311H5.27562V14.3979H5.50927C5.75265 14.3979 5.93352 14.4361 6.04683 14.5115C6.14554 14.5772 6.19356 14.6879 6.19356 14.8502C6.19356 14.9286 6.17866 14.9951 6.14813 15.0534Z" fill="#12E1B9"/>
<path d="M10.7918 14.0197C10.6128 13.8397 10.387 13.705 10.1208 13.6194C9.86127 13.5357 9.55581 13.4932 9.21299 13.4932H7.80685V17.9264H9.03087C9.42584 17.9264 9.77135 17.8726 10.0577 17.7665C10.3484 17.659 10.5913 17.503 10.7793 17.3029C10.967 17.1032 11.1069 16.8592 11.1949 16.5778C11.2812 16.3024 11.3248 15.9925 11.3248 15.657C11.3248 15.2912 11.2811 14.9703 11.1946 14.7032C11.1062 14.4296 10.9707 14.1997 10.7918 14.0197ZM9.92253 16.7139C9.73793 16.919 9.47013 17.0186 9.10382 17.0186H8.86997V14.401H9.16001C9.365 14.401 9.53708 14.4299 9.67129 14.4872C9.80146 14.5425 9.90214 14.6208 9.97913 14.7261C10.0578 14.8341 10.1148 14.9697 10.1485 15.1287C10.184 15.297 10.2021 15.4919 10.2021 15.7082C10.2021 16.1695 10.1081 16.5079 9.92253 16.7139Z" fill="#12E1B9"/>
<path d="M13.886 16.3134C13.886 16.4663 13.8719 16.5965 13.8439 16.7006C13.8178 16.7978 13.7794 16.8772 13.7295 16.9365C13.6817 16.9935 13.6233 17.0337 13.5509 17.0595C13.4722 17.0876 13.3715 17.1018 13.2515 17.1018C13.1245 17.1018 13.0198 17.0856 12.9402 17.0534C12.8638 17.0223 12.8023 16.9779 12.7522 16.9178C12.7019 16.8573 12.6659 16.7813 12.6451 16.6917C12.6219 16.5928 12.6102 16.4764 12.6102 16.3454V13.4932H11.5471V16.3934C11.5471 16.6331 11.5768 16.8531 11.6352 17.0472C11.6959 17.2488 11.7961 17.4232 11.933 17.5651C12.0699 17.7068 12.2491 17.8165 12.4657 17.8907C12.6761 17.9632 12.9305 18 13.2216 18C13.4818 18 13.7206 17.9632 13.9311 17.8907C14.1463 17.8169 14.3319 17.7051 14.4826 17.5581C14.6335 17.411 14.7505 17.2258 14.8305 17.0076C14.9092 16.7935 14.9491 16.5426 14.9491 16.2621V13.4932H13.886V16.3134Z" fill="#12E1B9"/>
<path d="M15.4928 14.385H16.4468V17.0282H15.4928V17.9264H18.4773V17.0282H17.5233V14.385H18.4773V13.4932H15.4928V14.385Z" fill="#12E1B9"/>
<path d="M21.436 16.0192L20.2474 13.4932H19.0441V17.9264H20.0343V15.3523L21.2291 17.9264H22.4263V13.4932H21.436V16.0192Z" fill="#12E1B9"/>
<path d="M25.8681 14.0177C25.5577 13.623 25.0924 13.4229 24.4853 13.4229C24.2255 13.4229 23.9778 13.4689 23.7489 13.5596C23.5168 13.6516 23.3117 13.7948 23.1393 13.9857C22.9683 14.1748 22.8325 14.4181 22.736 14.7085C22.6405 14.9953 22.5921 15.3391 22.5921 15.7307C22.5921 16.454 22.7459 17.0167 23.0493 17.4035C23.3598 17.7994 23.8251 18 24.4322 18C24.692 18 24.9399 17.954 25.1688 17.8632C25.401 17.7711 25.606 17.6278 25.7783 17.4373C25.949 17.2483 26.0848 17.0051 26.1817 16.7144C26.277 16.4278 26.3254 16.0839 26.3254 15.6922C26.3254 14.9668 26.1715 14.4034 25.8681 14.0177ZM25.1684 16.3212C25.138 16.4848 25.0905 16.6228 25.0273 16.7313C24.9673 16.8347 24.893 16.9104 24.8004 16.9627C24.7081 17.0147 24.5931 17.0411 24.4588 17.0411C24.1931 17.0411 24.0078 16.9422 23.8926 16.7389C23.7659 16.5154 23.7016 16.1634 23.7016 15.6922C23.7016 15.471 23.7176 15.2722 23.7492 15.1018C23.7797 14.9385 23.8275 14.8007 23.8916 14.6922C23.9527 14.5884 24.0272 14.5125 24.1194 14.46C24.2103 14.4082 24.3245 14.3819 24.4588 14.3819C24.7266 14.3819 24.9123 14.4806 25.0265 14.6836C25.1522 14.9071 25.2159 15.2595 25.2159 15.7307C25.2159 15.9525 25.2 16.1512 25.1684 16.3212Z" fill="#12E1B9"/>
<path d="M24.7896 0.593947H24.9782V1.08991H25.112V0.593947H25.3022V0.47081H24.7896V0.593947Z" fill="#12E1B9"/>
<path d="M25.7677 0.47081L25.6387 0.892786L25.5052 0.47081H25.3307V1.08991H25.4565V0.694422L25.5813 1.08991H25.6961L25.8145 0.704666V1.08991H25.9397V0.47081H25.7677Z" fill="#12E1B9"/>
<path d="M19.6116 12.451C17.9262 12.451 16.4852 11.8827 15.217 10.7203C14.4336 10.0025 13.7877 9.12309 13.1934 8.20867C12.5993 9.12309 11.9533 10.0025 11.1699 10.7203C9.80727 11.9692 8.24499 12.5323 6.39462 12.4416C2.86598 12.4263 0 9.6415 0 6.22078C0 2.79065 2.88171 0 6.4238 0C8.36212 0 9.99405 0.641449 11.4124 1.96087C12.0937 2.59467 12.6688 3.32986 13.1934 4.09911C13.7181 3.32986 14.2933 2.59467 14.9745 1.96087C16.3928 0.641449 18.0247 0 19.9631 0C23.5052 0 26.3869 2.79065 26.3869 6.22078C26.3869 9.6415 23.521 12.4263 19.9922 12.4416C19.864 12.4479 19.7371 12.451 19.6116 12.451ZM14.4839 6.1378C15.1869 7.27841 15.8692 8.34008 16.7003 9.10167C17.6385 9.96145 18.6273 10.3151 19.9055 10.2476L19.9631 10.246C22.2945 10.246 24.1913 8.44035 24.1913 6.22078C24.1913 4.00132 22.2945 2.19556 19.9631 2.19556C18.5867 2.19556 17.4767 2.63181 16.4699 3.56838C15.7179 4.26798 15.0971 5.16429 14.4839 6.1378ZM6.4238 2.19556C4.09238 2.19556 2.19556 4.00132 2.19556 6.22078C2.19556 8.44035 4.09238 10.246 6.4238 10.246L6.48144 10.2476C7.75979 10.3151 8.7484 9.96145 9.68651 9.10167C10.5176 8.34008 11.2001 7.27841 11.903 6.1378C11.2898 5.16429 10.6689 4.26798 9.91706 3.56838C8.91013 2.63181 7.80014 2.19556 6.4238 2.19556Z" fill="#12E1B9"/>
<path d="M20.2534 5.42288V4.23228H19.0142V5.42288H17.8237V6.65611H19.0142V7.8555H20.2534V6.65611H21.444V5.42288H20.2534Z" fill="#12E1B9"/>
<path d="M4.64111 5.40799H8.55427V6.67992H4.64111V5.40799Z" fill="#12E1B9"/>
</svg>
