<svg width="18" height="18" viewBox="0 0 18 18" fill="none" xmlns="http://www.w3.org/2000/svg">
<path d="M15.3 0H2.7C1.20883 0 0 1.20883 0 2.7V15.3C0 16.7912 1.20883 18 2.7 18H15.3C16.7912 18 18 16.7912 18 15.3V2.7C18 1.20883 16.7912 0 15.3 0Z" fill="#12E1B9"/>
<path d="M11.3906 13.0078C11.7422 13.6055 12.2343 14.0273 13.0429 14.0273C13.7461 14.0273 14.2031 13.6758 14.2031 13.1836C14.2031 12.6211 13.7461 12.4102 12.9726 12.0586L12.5508 11.8828C11.3203 11.3555 10.5117 10.7227 10.5117 9.35156C10.5117 8.08594 11.4609 7.10156 12.9726 7.10156C14.0625 7.10156 14.8359 7.48828 15.3633 8.47266L14.0625 9.31641C13.7812 8.78906 13.4648 8.57812 12.9726 8.57812C12.4804 8.57812 12.164 8.89453 12.164 9.31641C12.164 9.80859 12.4804 10.0195 13.2187 10.3359L13.6406 10.5117C15.082 11.1445 15.8906 11.7422 15.8906 13.1836C15.8906 14.6953 14.6953 15.5391 13.0781 15.5391C11.4961 15.5391 10.4765 14.8008 9.98434 13.8164L11.3906 13.0078ZM5.41403 13.1484C5.69528 13.6055 5.90622 14.0273 6.50388 14.0273C7.06638 14.0273 7.41794 13.8164 7.41794 12.9727V7.13672H9.10544V12.9023C9.10544 14.6602 8.08591 15.4336 6.57419 15.4336C5.20309 15.4336 4.42966 14.7305 4.04294 13.8867L5.41403 13.1484Z" fill="#388072"/>
</svg>
