<svg width="16" height="18" viewBox="0 0 16 18" fill="none" xmlns="http://www.w3.org/2000/svg">
<path d="M7.98714 18C7.73909 18 7.50758 17.9339 7.2926 17.8181L5.09325 16.5117C4.76252 16.3298 4.92788 16.2637 5.0271 16.2306C5.47359 16.0818 5.55627 16.0487 6.01929 15.7841C6.0689 15.751 6.13505 15.7676 6.18466 15.8006L7.87138 16.8094C7.93753 16.8424 8.02021 16.8424 8.06982 16.8094L14.6679 12.9894C14.734 12.9564 14.7671 12.8902 14.7671 12.8075V5.1842C14.7671 5.10152 14.734 5.03537 14.6679 5.0023L8.06982 1.1989C8.00368 1.16582 7.92099 1.16582 7.87138 1.1989L1.27331 5.0023C1.20717 5.03537 1.17409 5.11805 1.17409 5.1842V12.8075C1.17409 12.8737 1.20717 12.9564 1.27331 12.9894L3.07579 14.0312C4.05145 14.5273 4.6633 13.9486 4.6633 13.3698V5.84566C4.6633 5.74644 4.74598 5.64722 4.86174 5.64722H5.7051C5.80432 5.64722 5.90354 5.7299 5.90354 5.84566V13.3698C5.90354 14.6762 5.19247 15.4368 3.95223 15.4368C3.57189 15.4368 3.27423 15.4368 2.43087 15.0234L0.694534 14.0312C0.264584 13.7832 0 13.3202 0 12.8241V5.20074C0 4.70464 0.264584 4.24162 0.694534 3.99357L7.2926 0.173633C7.70602 -0.0578778 8.26826 -0.0578778 8.68167 0.173633L15.2797 3.99357C15.7097 4.24162 15.9743 4.70464 15.9743 5.20074V12.8241C15.9743 13.3202 15.7097 13.7832 15.2797 14.0312L8.68167 17.8512C8.4667 17.9504 8.21865 18 7.98714 18ZM10.0211 12.7579C7.12724 12.7579 6.53192 11.435 6.53192 10.3105C6.53192 10.2113 6.61461 10.1121 6.73036 10.1121H7.59026C7.68948 10.1121 7.77216 10.1782 7.77216 10.2774C7.90446 11.1539 8.2848 11.5838 10.0377 11.5838C11.4267 11.5838 12.022 11.2696 12.022 10.5255C12.022 10.0955 11.8567 9.78135 9.6904 9.56638C7.88792 9.38447 6.76344 8.9876 6.76344 7.54892C6.76344 6.20946 7.88792 5.41571 9.77308 5.41571C11.8898 5.41571 12.9316 6.14332 13.0638 7.73082C13.0638 7.78043 13.0473 7.83004 13.0142 7.87965C12.9812 7.91272 12.9316 7.9458 12.8819 7.9458H12.022C11.9394 7.9458 11.8567 7.87965 11.8401 7.79697C11.6417 6.88746 11.1291 6.5898 9.77308 6.5898C8.25172 6.5898 8.06982 7.11897 8.06982 7.51585C8.06982 7.99541 8.2848 8.14424 10.3353 8.40882C12.3693 8.6734 13.3284 9.05374 13.3284 10.4759C13.3119 11.9311 12.1213 12.7579 10.0211 12.7579Z" fill="#12E1B9"/>
</svg>
