<svg width="18" height="18" viewBox="0 0 18 18" fill="none" xmlns="http://www.w3.org/2000/svg">
<path d="M15.3 0H2.7C1.20883 0 0 1.20883 0 2.7V15.3C0 16.7912 1.20883 18 2.7 18H15.3C16.7912 18 18 16.7912 18 15.3V2.7C18 1.20883 16.7912 0 15.3 0Z" fill="#12E1B9"/>
<path d="M5.44922 7.10155H3.41016C3.38733 7.10025 3.3647 7.10641 3.34568 7.11909C3.32666 7.13177 3.31227 7.15029 3.30469 7.17186L2.35547 12.1289C2.35547 12.2344 2.46094 12.2344 2.46094 12.2344H3.51562C3.62109 12.2344 3.62109 12.164 3.62109 12.164L3.86719 10.9336H4.81641C6.29297 10.9336 7.03125 9.9492 7.20703 9.0703C7.38281 8.19139 7.24219 7.10155 5.44922 7.10155ZM5.90625 8.99999C5.76562 9.66795 5.30859 9.9492 4.67578 9.9492H4.04297L4.42969 8.08592H5.0625C6.01172 8.08592 5.97656 8.43749 5.90625 8.99999Z" fill="#388072" stroke="white" stroke-width="0.210937"/>
<path d="M9.66797 10.9336C9.52734 10.9336 9.5625 10.793 9.5625 10.793L9.98438 8.64844C9.98438 8.36719 10.1953 8.08594 9.35156 8.12109H8.71875L8.19141 10.8633C8.19141 10.8633 8.19141 10.9688 8.05078 10.9688H7.03125C6.92578 10.9688 6.92578 10.8633 6.92578 10.8633L7.91016 5.90625C7.91016 5.90625 7.91016 5.83594 8.05078 5.83594H9.10547C9.21094 5.83594 9.17578 5.94141 9.17578 5.94141L8.92969 7.13672H9.84375C11.1094 7.13672 11.4258 7.73438 11.3203 8.4375L10.8633 10.8633C10.8633 10.8633 10.8633 10.9688 10.6875 10.9688L9.66797 10.9336Z" fill="#388072" stroke="white" stroke-width="0.210937"/>
<path d="M13.8516 7.10155H11.8125C11.7897 7.10025 11.767 7.10641 11.748 7.11909C11.729 7.13177 11.7146 7.15029 11.707 7.17186L10.7578 12.1289C10.7578 12.2344 10.8633 12.2344 10.8633 12.2344H11.918C12.0234 12.2344 12.0234 12.164 12.0234 12.164L12.2695 10.9336H13.2188C14.6953 10.9336 15.4336 9.9492 15.6094 9.0703C15.7852 8.19139 15.6445 7.10155 13.8516 7.10155ZM14.3086 8.99999C14.168 9.66795 13.7109 9.9492 13.0781 9.9492H12.4453L12.832 8.08592H13.4648C14.4141 8.08592 14.3789 8.43749 14.3086 8.99999Z" fill="#388072" stroke="white" stroke-width="0.210937"/>
</svg>
