<svg width="14" height="18" viewBox="0 0 14 18" fill="none" xmlns="http://www.w3.org/2000/svg">
<path d="M5.67363 17.9882C3.98874 17.8668 2.32345 17.4427 1.30215 16.8749C0.720409 16.5515 0.277207 16.1541 0.103292 15.7999L-0.000183105 15.5891V8.97851V2.3679L0.081696 2.20165C0.447601 1.45877 1.61537 0.789053 3.24551 0.387218C3.79886 0.250804 4.59771 0.114958 5.24942 0.0464553C5.91489 -0.0235129 7.6788 -0.0128678 8.34262 0.0652261C10.1069 0.272508 11.6082 0.736561 12.5334 1.36062C12.8902 1.60128 13.2564 1.98635 13.3804 2.25142L13.4867 2.47867L13.4776 9.06929L13.4685 15.6599L13.3832 15.8334C13.3362 15.9287 13.1944 16.1164 13.068 16.2503C12.2987 17.0659 10.6485 17.6691 8.48404 17.9262C8.04287 17.9786 6.12625 18.0209 5.67363 17.9882ZM8.77862 12.3238C8.77214 12.3069 8.52026 12.0825 8.2189 11.8252C7.91753 11.5678 7.65797 11.3451 7.6421 11.3303C7.62624 11.3155 7.68192 11.2632 7.76584 11.214C7.84976 11.1648 8.01053 11.028 8.12313 10.9099C8.4524 10.5646 8.60775 10.1381 8.60775 9.57948C8.60775 9.0295 8.4402 8.58576 8.10461 8.24703C7.76638 7.9056 7.37803 7.7589 6.8125 7.7589C5.94077 7.7589 5.27128 8.26755 5.0576 9.0922C4.98409 9.37586 4.98448 9.94902 5.05837 10.2005C5.25107 10.8566 5.77591 11.3331 6.42909 11.445C6.65013 11.4828 6.68007 11.4991 6.83077 11.6639C6.92033 11.7618 7.10411 11.9573 7.23917 12.0982L7.48475 12.3545H8.13758C8.49664 12.3545 8.7851 12.3407 8.77862 12.3238ZM6.5398 10.4959C6.38264 10.414 6.32322 10.3504 6.2336 10.1682C6.16438 10.0275 6.15254 9.94744 6.15177 9.61484C6.151 9.27688 6.16175 9.20385 6.23402 9.0571C6.35227 8.81695 6.51522 8.70327 6.7673 8.68504C7.11818 8.65958 7.32071 8.83179 7.42687 9.24564C7.55701 9.75303 7.41389 10.2925 7.10164 10.4715C6.93782 10.5654 6.69346 10.5761 6.5398 10.4959ZM3.64616 11.4378C4.33062 11.308 4.71916 10.9099 4.71916 10.3385C4.71916 9.83158 4.46831 9.5362 3.77503 9.22671C3.37816 9.04954 3.23441 8.93833 3.23441 8.8084C3.23441 8.70071 3.37083 8.58269 3.52964 8.55305C3.6847 8.52409 4.09597 8.59552 4.33883 8.69362L4.5424 8.77586V8.32525V7.87461L4.32145 7.8256C4.1849 7.79531 3.89797 7.77713 3.57024 7.77806C3.10603 7.77806 3.01514 7.78937 2.84044 7.85875C2.33016 8.06132 2.08801 8.4064 2.09189 8.9255C2.09551 9.41144 2.35187 9.71456 2.98989 9.98726C3.36634 10.1482 3.51723 10.2707 3.51723 10.4155C3.51723 10.7231 3.00459 10.761 2.46182 10.4934C2.31318 10.4201 2.17964 10.3542 2.16505 10.3469C2.15047 10.3396 2.13855 10.5501 2.13855 10.8147C2.13855 11.2936 2.13906 11.2959 2.22576 11.3289C2.55228 11.453 3.27394 11.5083 3.64616 11.4378ZM11.4712 10.9935V10.587H10.8525H10.2339V9.19061V7.79426H9.68596H9.13802V9.59715V11.4H10.3046H11.4712V10.9935ZM7.65328 3.86939C8.74213 3.79387 9.55834 3.65129 10.2766 3.41114C10.9921 3.1719 11.4148 2.88241 11.5093 2.56685C11.5458 2.44524 11.5432 2.39912 11.4923 2.26579C11.264 1.66807 9.98877 1.20883 8.04015 1.02263C7.20662 0.94297 5.69072 0.968795 4.89596 1.07615C3.68327 1.24 2.69911 1.54435 2.26151 1.89085C1.3763 2.59181 2.31242 3.36278 4.48939 3.72566C5.43331 3.88301 6.65624 3.93857 7.65328 3.86939Z" fill="#12E1B9"/>
</svg>
