<svg width="28" height="29" viewBox="0 0 28 29" fill="none" xmlns="http://www.w3.org/2000/svg">
<path fill-rule="evenodd" clip-rule="evenodd" d="M14 0.145844C21.7322 0.145844 28 6.57174 28 14.4999C28 20.8405 23.9932 26.2194 18.4338 28.1192C17.724 28.2606 17.472 27.8123 17.472 27.4301C17.472 26.9569 17.4888 25.4113 17.4888 23.4905C17.4888 22.1521 17.0408 21.2786 16.5382 20.8334C19.656 20.4778 22.932 19.2639 22.932 13.7507C22.932 12.1827 22.3888 10.9032 21.49 9.89798C21.6356 9.53538 22.1158 8.07537 21.3528 6.09857C21.3528 6.09857 20.1796 5.71395 17.507 7.57035C16.3884 7.25255 15.19 7.09265 14 7.08705C12.81 7.09265 11.613 7.25255 10.4958 7.57035C7.8204 5.71395 6.6444 6.09857 6.6444 6.09857C5.8842 8.07537 6.3644 9.53538 6.5086 9.89798C5.614 10.9032 5.0666 12.1827 5.0666 13.7507C5.0666 19.2499 8.3356 20.4824 11.445 20.845C11.0446 21.2034 10.682 21.8357 10.556 22.7639C9.758 23.1307 7.7308 23.7655 6.482 21.5717C6.482 21.5717 5.7414 20.1925 4.3358 20.0917C4.3358 20.0917 2.9708 20.0736 4.2406 20.964C4.2406 20.964 5.1576 21.405 5.7946 23.064C5.7946 23.064 6.6164 25.6259 10.5112 24.7579C10.5182 25.9577 10.5308 27.0885 10.5308 27.4301C10.5308 27.8095 10.2732 28.2535 9.5746 28.1205C4.011 26.2235 0 20.8419 0 14.4999C0 6.57174 6.2692 0.145844 14 0.145844Z" fill="white"/>
</svg>
