<svg width="28" height="29" viewBox="0 0 28 29" fill="none" xmlns="http://www.w3.org/2000/svg">
<path d="M25.7576 0.148355H2.39728C2.09619 0.134251 1.79525 0.17966 1.51172 0.282008C1.2282 0.384356 0.967644 0.541613 0.74496 0.74477C0.522293 0.947944 0.341867 1.19304 0.214041 1.46602C0.0862149 1.73901 0.0134738 2.03452 0 2.33565V25.7486C0.0176384 26.3787 0.275879 26.9783 0.721686 27.424C1.16749 27.8699 1.76706 28.1282 2.39728 28.1458H25.7576C26.3703 28.1185 26.9479 27.8522 27.3666 27.4041C27.7854 26.956 28.0118 26.3617 27.9974 25.7486V2.33565C28.0025 2.04256 27.9476 1.75154 27.8361 1.48042C27.7246 1.20932 27.5589 0.963832 27.3491 0.759014C27.1395 0.554212 26.8901 0.394418 26.6165 0.28941C26.3428 0.184402 26.0506 0.136403 25.7576 0.148355ZM8.7492 23.4913H4.67207V11.0149H8.7492V23.4913ZM6.80688 9.12503C6.52237 9.13495 6.23888 9.08592 5.97423 8.98104C5.70957 8.87615 5.46946 8.71767 5.269 8.51555C5.06852 8.31342 4.91199 8.07203 4.80928 7.80653C4.70655 7.54103 4.65984 7.25715 4.67207 6.97273C4.65949 6.68523 4.70714 6.39829 4.81197 6.1303C4.91681 5.8623 5.0765 5.61918 5.28079 5.41653C5.4851 5.21386 5.7295 5.05615 5.99833 4.9535C6.26717 4.85084 6.5545 4.80552 6.84187 4.82043C7.12638 4.81052 7.40987 4.85954 7.67452 4.96442C7.93918 5.06931 8.1793 5.22779 8.37976 5.42991C8.58024 5.63204 8.73676 5.87343 8.83947 6.13893C8.94221 6.40443 8.98891 6.68831 8.97668 6.97273C8.98926 7.26023 8.94161 7.54717 8.83678 7.81516C8.73195 8.08316 8.57226 8.32628 8.36796 8.52893C8.16365 8.7316 7.91925 8.88931 7.65042 8.99196C7.38158 9.09462 7.09425 9.13994 6.80688 9.12503ZM23.3429 23.4913H19.2482V16.6669C19.2482 15.0395 18.6708 13.9196 17.2184 13.9196C16.7673 13.9235 16.3283 14.0668 15.9619 14.33C15.5953 14.5932 15.3192 14.9633 15.1711 15.3895C15.0574 15.709 15.0098 16.0483 15.0311 16.3869V23.4913H11.0065V11.0149H15.0311V12.7648C15.389 12.1073 15.9214 11.5617 16.5699 11.188C17.2184 10.8144 17.9576 10.6273 18.7058 10.6474C21.348 10.6474 23.3429 12.3973 23.3429 16.1244V23.4913Z" fill="white"/>
</svg>
