<svg width="38" height="38" viewBox="0 0 38 38" fill="none" xmlns="http://www.w3.org/2000/svg">
<path fill-rule="evenodd" clip-rule="evenodd" d="M7.47919 29.3646C7.47919 28.726 7.99686 28.2083 8.63544 28.2083H30.2188C30.8573 28.2083 31.375 28.726 31.375 29.3646C31.375 30.0032 30.8573 30.5208 30.2188 30.5208H8.63544C7.99686 30.5208 7.47919 30.0032 7.47919 29.3646ZM12.1042 33.9896C12.1042 33.351 12.6219 32.8333 13.2604 32.8333H25.5938C26.2323 32.8333 26.75 33.351 26.75 33.9896C26.75 34.6282 26.2323 35.1458 25.5938 35.1458H13.2604C12.6219 35.1458 12.1042 34.6282 12.1042 33.9896Z" fill="#5B874F"/>
<path d="M10.3046 23.5833C9.48659 22.0969 9.02085 20.3887 9.02085 18.5729C9.02085 12.8257 13.6799 8.16667 19.4271 8.16667C25.1743 8.16667 29.8334 12.8257 29.8334 18.5729C29.8334 20.3887 29.3676 22.0969 28.5496 23.5833H34.8438C35.4823 23.5833 36 24.101 36 24.7396C36 25.3781 35.4823 25.8958 34.8438 25.8958H4.01044C3.37186 25.8958 2.85419 25.3781 2.85419 24.7396C2.85419 24.101 3.37186 23.5833 4.01044 23.5833H10.3046Z" fill="#5B874F"/>
<path fill-rule="evenodd" clip-rule="evenodd" d="M19.4271 2C20.0657 2 20.5834 2.51768 20.5834 3.15625V4.69792C20.5834 5.33649 20.0657 5.85417 19.4271 5.85417C18.7885 5.85417 18.2709 5.33649 18.2709 4.69792V3.15625C18.2709 2.51768 18.7885 2 19.4271 2ZM7.70829 6.85411C8.15983 6.40257 8.89194 6.40257 9.34348 6.85411L9.94911 7.45974C10.4006 7.91127 10.4006 8.64337 9.94911 9.09492C9.49755 9.54646 8.76546 9.54646 8.31392 9.09492L7.70829 8.48929C7.25676 8.03775 7.25676 7.30565 7.70829 6.85411ZM31.1455 6.85451C31.597 7.30605 31.597 8.03815 31.1455 8.48969L30.5399 9.09532C30.0883 9.54686 29.3562 9.54686 28.9047 9.09532C28.4531 8.64377 28.4531 7.91167 28.9047 7.46014L29.5104 6.85451C29.9619 6.40297 30.6939 6.40297 31.1455 6.85451ZM2.85419 18.5729C2.85419 17.9344 3.37186 17.4167 4.01044 17.4167H5.5521C6.19068 17.4167 6.70835 17.9344 6.70835 18.5729C6.70835 19.2115 6.19068 19.7292 5.5521 19.7292H4.01044C3.37186 19.7292 2.85419 19.2115 2.85419 18.5729ZM32.1459 18.5729C32.1459 17.9344 32.6635 17.4167 33.3021 17.4167H34.8438C35.4823 17.4167 36 17.9344 36 18.5729C36 19.2115 35.4823 19.7292 34.8438 19.7292H33.3021C32.6635 19.7292 32.1459 19.2115 32.1459 18.5729Z" fill="#5B874F"/>
</svg>
