<svg width="18" height="18" viewBox="0 0 10 10" fill="none" xmlns="http://www.w3.org/2000/svg">
<path d="M4.43873 0.0356985C2.13406 0.293579 0.280309 2.20189 0.0298012 4.52282C-0.220706 6.94689 1.13203 9.11309 3.1862 9.93831C3.3365 9.98988 3.4868 9.88673 3.4868 9.68043V8.85521C3.4868 8.85521 3.2864 8.90679 3.03589 8.90679C2.33447 8.90679 2.03386 8.28787 1.98376 7.92684C1.93366 7.72054 1.83346 7.56581 1.68315 7.41108C1.53285 7.3595 1.48274 7.3595 1.48274 7.30793C1.48274 7.20478 1.63305 7.20478 1.68315 7.20478C1.98376 7.20478 2.23427 7.56581 2.33447 7.72054C2.58498 8.13314 2.88559 8.2363 3.03589 8.2363C3.2363 8.2363 3.3866 8.18472 3.4868 8.13314C3.53691 7.77211 3.68721 7.41108 3.98782 7.20478C2.83549 6.94689 1.98376 6.27641 1.98376 5.14173C1.98376 4.57439 2.23427 4.00706 2.58498 3.59445C2.53488 3.4913 2.48477 3.23342 2.48477 2.87238C2.48477 2.66608 2.48477 2.35662 2.63508 2.04717C2.63508 2.04717 3.3365 2.04717 4.03792 2.71766C4.28843 2.6145 4.63914 2.56293 4.98985 2.56293C5.34056 2.56293 5.69127 2.6145 5.99188 2.71766C6.6432 2.04717 7.39472 2.04717 7.39472 2.04717C7.49492 2.35662 7.49493 2.66608 7.49493 2.87238C7.49493 3.28499 7.44482 3.4913 7.39472 3.59445C7.74543 4.00706 7.99594 4.52282 7.99594 5.14173C7.99594 6.27641 7.14421 6.94689 5.99188 7.20478C6.29249 7.46266 6.4929 7.92684 6.4929 8.39102V9.732C6.4929 9.88673 6.6432 10.0415 6.84361 9.98988C8.69736 9.21624 10 7.3595 10 5.19331C10 2.09874 7.44482 -0.325334 4.43873 0.0356985Z" fill="#12E1B9"/>
</svg>
