<svg width="18" height="15" viewBox="0 0 18 15" fill="none" xmlns="http://www.w3.org/2000/svg">
<path d="M2.86364 0C1.29175 0 0 1.26305 0 2.8V12C0 13.316 1.10866 14.4 2.45455 14.4H5.72727V8.53906L9 11.0391L12.2727 8.53906V14.4H15.5455C16.8913 14.4 18 13.316 18 12V2.8C18 1.26305 16.7082 0 15.1364 0C14.5228 0 13.8948 0.193808 13.3722 0.59375L9 3.92969L4.62784 0.59375H4.62624C4.10384 0.194465 3.47667 0 2.86364 0ZM2.86364 1.6C3.13374 1.6 3.38942 1.67863 3.6195 1.85469L4.09091 2.21406V5.25937L1.63636 3.38594V2.8C1.63636 2.12735 2.1757 1.6 2.86364 1.6ZM15.1364 1.6C15.8243 1.6 16.3636 2.12735 16.3636 2.8V3.38594L13.9091 5.25937V2.21406L14.3805 1.85469C14.6106 1.67863 14.8663 1.6 15.1364 1.6ZM5.72727 3.4625L9 5.95937L12.2727 3.4625V6.50937L9 9.00937L5.72727 6.50937V3.4625ZM1.63636 5.41562L4.09091 7.28906V12.8H2.45455C1.99225 12.8 1.63636 12.452 1.63636 12V5.41562ZM16.3636 5.41562V12C16.3636 12.452 16.0078 12.8 15.5455 12.8H13.9091V7.28906L16.3636 5.41562Z" fill="#12E1B9"/>
</svg>
