<svg width="30" height="24" viewBox="0 0 30 24" fill="none" xmlns="http://www.w3.org/2000/svg">
<path d="M29.1665 5.82008V19.2296C29.1665 20.3137 28.7523 21.3568 28.0086 22.1456C27.2649 22.9344 26.2478 23.4091 25.1656 23.4727L24.9162 23.4798H5.08181C3.9977 23.4799 2.95455 23.0657 2.16578 22.3219C1.37701 21.5782 0.902258 20.5612 0.838657 19.4789L0.831573 19.2296V5.82008L14.2127 14.7413L14.3771 14.8348C14.5708 14.9295 14.7835 14.9786 14.999 14.9786C15.2146 14.9786 15.4273 14.9295 15.621 14.8348L15.7853 14.7413L29.1665 5.82008Z" fill="white"/>
<path d="M24.9163 0.811874C26.4464 0.811874 27.788 1.61942 28.5361 2.83357L14.9991 11.8582L1.46207 2.83357C1.81729 2.25663 2.30533 1.773 2.88548 1.42303C3.46563 1.07307 4.12106 0.866924 4.79709 0.821792L5.08185 0.811874H24.9163Z" fill="white"/>
</svg>
