<svg width="18" height="18" viewBox="0 0 10 10" fill="none" xmlns="http://www.w3.org/2000/svg">
<path d="M1.11111 0C0.497222 0 0 0.497222 0 1.11111V8.88889C0 9.50278 0.497222 10 1.11111 10H8.88889C9.50278 10 10 9.50278 10 8.88889V1.11111C10 0.497222 9.50278 0 8.88889 0H1.11111ZM1.11111 1.11111H8.88889V8.88889H1.11111V1.11111ZM2.65517 1.84245C2.17905 1.84245 1.89345 2.12865 1.89345 2.50977C1.89345 2.89088 2.17909 3.176 2.60742 3.176C3.08353 3.176 3.36914 2.89088 3.36914 2.50977C3.36914 2.12865 3.0835 1.84245 2.65517 1.84245ZM1.93142 3.88889V7.77778H3.33333V3.88889H1.93142ZM4.49002 3.88889V7.77778H5.89193V5.65213C5.89193 5.01935 6.34339 4.92839 6.47895 4.92839C6.61451 4.92839 6.977 5.06435 6.977 5.65213V7.77778H8.33333V5.65213C8.33333 4.43157 7.79096 3.88889 7.11263 3.88889C6.4343 3.88889 6.07248 4.11476 5.89193 4.43142V3.88889H4.49002Z" fill="#12E1B9"/>
</svg>
