<svg width="28" height="28" viewBox="0 0 28 28" fill="none" xmlns="http://www.w3.org/2000/svg">
<path d="M13.9634 3.49084C14.117 3.49084 14.2694 3.49084 14.4207 3.49084C12.9258 4.87986 11.965 6.74878 11.7051 8.77274C11.4453 10.7967 11.9029 12.8477 12.9984 14.5693C14.0939 16.2909 15.7581 17.5741 17.7016 18.196C19.6451 18.8178 21.7451 18.739 23.6365 17.9732C22.9089 19.7238 21.7198 21.2441 20.1959 22.3719C18.672 23.4997 16.8706 24.1927 14.9837 24.377C13.0969 24.5613 11.1954 24.2299 9.48215 23.4182C7.76888 22.6065 6.30807 21.345 5.25556 19.7682C4.20304 18.1914 3.5983 16.3584 3.50583 14.4648C3.41336 12.5713 3.83664 10.6881 4.73052 9.01628C5.62439 7.34442 6.95533 5.94656 8.58137 4.97181C10.2074 3.99706 12.0675 3.48199 13.9634 3.48153V3.49084Z" stroke="#12E1B9" stroke-width="2.32723" stroke-linecap="round" stroke-linejoin="round"/>
<path d="M19.7814 4.65445C19.7814 5.27167 20.0266 5.86361 20.4631 6.30005C20.8995 6.73649 21.4914 6.98168 22.1087 6.98168C21.4914 6.98168 20.8995 7.22687 20.4631 7.66331C20.0266 8.09975 19.7814 8.69169 19.7814 9.30891C19.7814 8.69169 19.5362 8.09975 19.0998 7.66331C18.6634 7.22687 18.0714 6.98168 17.4542 6.98168C18.0714 6.98168 18.6634 6.73649 19.0998 6.30005C19.5362 5.86361 19.7814 5.27167 19.7814 4.65445Z" stroke="#12E1B9" stroke-width="2.32723" stroke-linecap="round" stroke-linejoin="round"/>
<path d="M22.1087 12.7997H24.4359M23.2723 11.6361V13.9634" stroke="#12E1B9" stroke-width="2.32723" stroke-linecap="round" stroke-linejoin="round"/>
</svg>
