<svg width="29" height="28" viewBox="0 0 29 28" fill="none" xmlns="http://www.w3.org/2000/svg">
<path d="M0.744675 13.9868C0.744675 13.6707 0.850037 13.3942 1.07393 13.1703C1.29783 12.9595 1.5744 12.8542 1.86415 12.8542H4.55088C4.8538 12.8542 5.10404 12.9595 5.31476 13.1834C5.51231 13.4073 5.61768 13.6707 5.61768 13.9868C5.61768 14.3029 5.52548 14.5663 5.32793 14.7902C5.13038 15.0141 4.86697 15.1195 4.56405 15.1195H1.87732C1.5744 15.1195 1.311 15.0141 1.0871 14.7902C0.863207 14.5663 0.744675 14.3029 0.744675 13.9868ZM4.51137 23.1138C4.51137 22.8109 4.61673 22.5475 4.81429 22.3104L6.75032 20.4271C6.94787 20.2164 7.21128 20.1242 7.52737 20.1242C7.84345 20.1242 8.10686 20.2295 8.31758 20.4271C8.52831 20.6246 8.63367 20.8749 8.63367 21.1778C8.63367 21.4939 8.52831 21.7836 8.31758 22.0207L6.4474 23.8909C5.90742 24.3123 5.36744 24.3123 4.82746 23.8909C4.61673 23.6801 4.51137 23.4167 4.51137 23.1138ZM4.51137 4.88617C4.51137 4.58325 4.61673 4.31985 4.81429 4.08278C5.07769 3.85889 5.35427 3.75353 5.65719 3.75353C5.94693 3.75353 6.21034 3.85889 6.43423 4.06961L8.31758 6.00564C8.52831 6.2032 8.63367 6.4666 8.63367 6.78269C8.63367 7.09878 8.52831 7.36218 8.31758 7.57291C8.10686 7.78363 7.84345 7.88899 7.52737 7.88899C7.21128 7.88899 6.94787 7.78363 6.75032 7.57291L4.82746 5.68956C4.61673 5.47883 4.51137 5.20226 4.51137 4.88617ZM7.86979 13.9868C7.86979 12.762 8.17271 11.6162 8.79171 10.5626C9.41071 9.50894 10.2404 8.66604 11.3072 8.04704C12.374 7.42803 13.5067 7.12512 14.7315 7.12512C15.6534 7.12512 16.5358 7.3095 17.3919 7.67827C18.2348 8.04704 18.9723 8.53434 19.5782 9.15334C20.1972 9.77234 20.6845 10.4967 21.0401 11.3396C21.3957 12.1825 21.58 13.0781 21.58 14C21.58 15.238 21.2771 16.3838 20.6581 17.4374C20.0391 18.4911 19.2094 19.3208 18.1558 19.9398C17.1022 20.5588 15.9563 20.8617 14.7183 20.8617C13.4803 20.8617 12.3345 20.5588 11.2809 19.9398C10.2273 19.3208 9.39754 18.4911 8.77854 17.4374C8.18588 16.3706 7.86979 15.2248 7.86979 13.9868ZM10.1087 13.9868C10.1087 15.2775 10.5565 16.3706 11.4653 17.2794C12.3609 18.1881 13.454 18.6491 14.7447 18.6491C16.0354 18.6491 17.1285 18.1881 18.0372 17.2794C18.946 16.3706 19.407 15.2775 19.407 13.9868C19.407 12.7225 18.946 11.6425 18.0372 10.7338C17.1285 9.83819 16.0354 9.3904 14.7447 9.3904C13.4672 9.3904 12.374 9.83819 11.4784 10.7338C10.5565 11.6425 10.1087 12.7225 10.1087 13.9868ZM13.612 24.2333C13.612 23.9172 13.7174 23.6538 13.9413 23.4431C14.1652 23.2324 14.4286 23.127 14.7315 23.127C15.0476 23.127 15.3242 23.2324 15.5349 23.4431C15.7456 23.6538 15.851 23.9172 15.851 24.2333V26.8542C15.851 27.1703 15.7456 27.4468 15.5217 27.6707C15.2978 27.8946 15.0344 28 14.7315 28C14.4286 28 14.152 27.8946 13.9413 27.6707C13.7174 27.4468 13.612 27.1703 13.612 26.8542V24.2333ZM13.612 3.81938V1.13264C13.612 0.829727 13.7174 0.566322 13.9413 0.342427C14.1652 0.118533 14.4286 0 14.7447 0C15.0608 0 15.311 0.105362 15.5349 0.329257C15.7588 0.553151 15.8641 0.816557 15.8641 1.11947V3.81938C15.8641 4.1223 15.7588 4.37253 15.5349 4.58325C15.311 4.79398 15.0476 4.88617 14.7447 4.88617C14.4418 4.88617 14.1652 4.78081 13.9545 4.58325C13.7437 4.3857 13.612 4.1223 13.612 3.81938ZM20.882 21.1778C20.882 20.8749 20.9874 20.6246 21.1849 20.4403C21.3825 20.2295 21.6327 20.1373 21.9225 20.1373C22.2386 20.1373 22.502 20.2427 22.7127 20.4403L24.6355 22.3236C24.8463 22.5475 24.9516 22.8241 24.9516 23.127C24.9516 23.4299 24.8463 23.6933 24.6355 23.904C24.1087 24.3123 23.5819 24.3123 23.0551 23.904L21.1849 22.0339C20.9874 21.7968 20.882 21.5202 20.882 21.1778ZM20.882 6.79586C20.882 6.4666 20.9874 6.2032 21.1849 6.01881L23.0551 4.08278C23.279 3.87206 23.5424 3.7667 23.8322 3.7667C24.1482 3.7667 24.4117 3.87206 24.6224 4.09595C24.8463 4.31985 24.9516 4.58325 24.9516 4.88617C24.9516 5.21543 24.8463 5.492 24.6355 5.70273L22.7127 7.58608C22.4756 7.7968 22.2122 7.90216 21.9225 7.90216C21.6196 7.90216 21.3825 7.7968 21.1849 7.58608C20.9874 7.37535 20.882 7.11195 20.882 6.79586ZM23.8585 13.9868C23.8585 13.6707 23.9639 13.4073 24.1746 13.1703C24.3853 12.9595 24.6355 12.8542 24.9253 12.8542H27.5857C27.8886 12.8542 28.152 12.9727 28.3759 13.1966C28.5998 13.4205 28.7183 13.6839 28.7183 13.9868C28.7183 14.2897 28.5998 14.5532 28.3759 14.777C28.152 15.0009 27.8886 15.1063 27.5857 15.1063H24.9253C24.6224 15.1063 24.359 15.0009 24.1614 14.777C23.9639 14.5532 23.8585 14.3029 23.8585 13.9868Z" fill="#12E1B9"/>
</svg>
